<?xml version="1.0" encoding="UTF-8"?>
<svg id="Camada_1" data-name="Camada 1" xmlns="http://www.w3.org/2000/svg" viewBox="0 0 1920 664.27">
  <defs>
    <style>
      .cls-1 {
        fill: #fff;
      }

      .cls-2 {
        fill: #7d00e4;
      }

      .cls-3 {
        fill: #111;
      }

      .cls-4 {
        fill: #9747ff;
      }
    </style>
  </defs>
  <path class="cls-3" d="m332.92,314.76l-6.58,65.51,70.31-2.41c-17.61,19.15-44.21,29.15-80.72,30.39-65.27,2.23-94.94-17.16-88.91-77.09,6.02-59.92,39.81-81.48,105.07-83.71,76.08-2.6,103.63,26.33,103.63,26.33l57.27-45.74s-44.3-52.06-154.09-48.31c-100.42,3.43-179.07,63.21-188.2,154.06-9.14,90.84,58,145.64,158.42,142.2,36.93-1.26,71.61-11.22,101.33-28.94l-2.12,21.1,74.56-2.55,15.52-156.5-165.49,5.66Zm481.07-43.92c3.6-35.79-12.41-102.69-98.77-99.74l-178.59,6.11-28.91,287.54,74.58-2.54,7.44-74.08,68.51-2.35,45.21,72.28,87.89-3-49.67-79.38c47.21-19.06,68.36-65.55,72.31-104.84Zm223.35-110.75l-96.79,3.31-133.73,291.13,75.67-2.59,21.5-46.78,121.36-4.15,12.17,45.63,75.67-2.58-75.85-283.97Zm257.85,212.49l-82.63,2.82,15.73-156.52,82.64-2.83c20.47-.7,39.51-2.51,44.79,29l78.21-2.68c-7.21-64.24-48.33-94.16-116.41-91.84l-157.22,5.38-28.91,287.55,157.22-5.38c68.11-2.33,115.59-35.58,135.82-100.87l-78.23,2.67c-11.69,32.27-30.52,32-51.01,32.7Zm241.78-123.81l10.67-106.17-74.67,2.55-10.68,106.17-105.8,3.62-7.54,74.93,105.81-3.61-10.67,106.17,74.67-2.55,10.68-106.18,105.8-3.61,7.54-74.94-105.81,3.62Zm64.38,113.04c-37.85,1.3-68.91,30.37-72.7,68.05l161.25-5.51,6.62-65.79-95.17,3.25Zm-43.79-219.49c-3.5,34.81,24.5,64.72,59.47,63.53l95.17-3.26,6.61-65.79-161.25,5.52Z"/>
  <path class="cls-3" d="m1780.55,177.37c-.2-.23-50.47-50.49-50.69-50.69-2.84-3.11-6.97-5.03-11.57-4.87l-245.84,8.35c-7.5.26-13.66,6.02-14.41,13.49l-5.95,59.24s-.01,0-.02-.01c-.21-.21-34-34-34.21-34.21-2.42-2.49-4.97-4.84-7.66-7.06-21.03-17.39-49.77-26.2-85.43-26.2-2.54,0-5.16.04-7.77.13l-157.21,5.38c-7.51.25-13.67,6.02-14.42,13.49l-15.42,153.46-26.8-100.32c-.73-2.75-2.21-5.13-4.16-6.99-.2-.22-50.47-50.48-50.69-50.69-2.88-3.09-7.02-4.92-11.48-4.77l-96.78,3.31c-5.67.19-10.75,3.57-13.12,8.73l-53.07,115.53c-4.18-11.68-10.46-23.1-19.44-33.03-1.26-1.39-2.56-2.73-3.89-4.04-.21-.21-50.47-50.48-50.68-50.69-19.2-19.18-45.79-28.9-79.15-28.9-1.96,0-3.97.03-5.98.1l-178.6,6.11c-7.5.25-13.66,6.02-14.41,13.49l-5.46,54.26c-.09-.09-14.01-14.01-14.24-14.24-10.7-10.83-56.96-51.19-151.88-51.19-3.86,0-7.8.06-11.73.2-53.22,1.82-100.67,18.25-137.21,47.53-37.95,30.42-60.57,71.92-65.41,120.02-4.31,42.89,6.87,80.44,32.33,108.59,1.84,2.03,56.21,56.41,56.42,56.62,29.52,29.05,74.3,44.97,127.08,44.97,3.08,0,6.23-.06,9.35-.16,27.87-.95,54.9-6.68,79.65-16.73.08.08,5.73,5.74,5.95,5.94,1.82,2.01,4.47,3.26,7.43,3.16l180.15-6.16c7.5-.26,13.66-6.02,14.41-13.49l6.14-61.04,27.95-.95,8.11,12.98c.69,1.09,1.5,2.07,2.41,2.94.21.21,50.48,50.48,50.69,50.69,2.93,3.12,7.09,4.88,11.46,4.73l179.02-6.12c5.67-.19,10.75-3.57,13.12-8.73l17.64-38.38,73.24-2.5c.09.09,39.34,39.33,39.55,39.54,2.89,3.09,7.03,4.92,11.48,4.77l251.09-8.56c46.34-1.59,83.62-16.51,110.63-43.8.11.12,33.07,33.07,33.29,33.28,2.84,3.1,6.97,5.02,11.56,4.86l245.82-8.08c7.5-.25,13.66-6.02,14.41-13.49l6.61-65.78c.48-4.79-1.34-9.21-4.5-12.27-.2-.22-50.47-50.48-50.69-50.69-.97-1.06-2.1-1.97-3.35-2.72l4.8-47.73c.48-4.79-1.34-9.2-4.5-12.26-.2-.22-14.16-14.17-14.28-14.29l73.79-2.52c7.5-.26,13.66-6.02,14.41-13.49l6.62-65.79c.48-4.79-1.35-9.2-4.51-12.26ZM482.89,465.6l-74.56,2.55,2.12-21.1c-29.72,17.72-64.4,27.68-101.33,28.94-100.42,3.44-167.56-51.36-158.42-142.2,9.13-90.85,87.78-150.63,188.2-154.06,109.79-3.75,154.09,48.31,154.09,48.31l-57.27,45.74s-27.55-28.93-103.63-26.33c-65.26,2.23-99.05,23.79-105.07,83.71-6.03,59.93,23.64,79.32,88.91,77.09,36.51-1.24,63.11-11.24,80.72-30.39l-70.31,2.41,6.58-65.51,165.49-5.66-15.52,156.5Zm220.57-7.54l-45.21-72.28-68.51,2.35-7.44,74.08-74.58,2.54,28.91-287.54,178.59-6.11c86.36-2.95,102.37,63.95,98.77,99.74-3.95,39.29-25.1,85.78-72.31,104.84l49.67,79.38-87.89,3Zm334.06-11.42l-12.17-45.63-121.36,4.15-21.5,46.78-75.67,2.59,133.73-291.13,96.79-3.31,75.85,283.97-75.67,2.58Zm251.09-8.56l-157.22,5.38,28.91-287.55,157.22-5.38c68.08-2.32,109.2,27.6,116.41,91.84l-78.21,2.68c-5.28-31.51-24.32-29.7-44.79-29l-82.64,2.83-15.73,156.52,82.63-2.82c20.49-.7,39.32-.43,51.01-32.7l78.23-2.67c-20.23,65.29-67.71,98.54-135.82,100.87Zm155.48-5.65l10.67-106.17-105.81,3.61,7.54-74.93,105.8-3.62,10.68-106.17,74.67-2.55-10.67,106.17,105.81-3.62-7.54,74.94-105.8,3.61-10.68,106.18-74.67,2.55Zm252.43-73.87l-6.62,65.79-161.25,5.51c3.79-37.68,34.85-66.75,72.7-68.05l95.17-3.25Zm15.68-155.97l-95.17,3.26c-34.97,1.19-62.97-28.72-59.47-63.53l161.25-5.52-6.61,65.79Z"/>
  <g>
    <path class="cls-1" d="m1295.19,372.58l-82.63,2.82,15.73-156.52,82.64-2.83c20.47-.7,39.51-2.51,44.79,29l78.21-2.68c-7.21-64.24-48.33-94.16-116.41-91.84l-157.22,5.38-28.91,287.55,157.22-5.38c68.11-2.33,115.59-35.58,135.82-100.87l-78.23,2.67c-11.69,32.27-30.52,32-51.01,32.7Z"/>
    <path class="cls-1" d="m332.92,314.76l-6.58,65.51,70.31-2.41c-17.61,19.15-44.21,29.15-80.72,30.39-65.27,2.23-94.94-17.16-88.91-77.09,6.02-59.92,39.81-81.48,105.07-83.71,76.08-2.6,103.63,26.33,103.63,26.33l57.27-45.74s-44.3-52.06-154.09-48.31c-100.42,3.43-179.07,63.21-188.2,154.06-9.14,90.84,58,145.64,158.42,142.2,36.93-1.26,71.61-11.22,101.33-28.94l-2.12,21.1,74.56-2.55,15.52-156.5-165.49,5.66Z"/>
    <path class="cls-1" d="m813.99,270.84c3.6-35.79-12.41-102.69-98.77-99.74l-178.59,6.11-28.91,287.54,74.58-2.54,7.44-74.08,68.51-2.35,45.21,72.28,87.89-3-49.67-79.38c47.21-19.06,68.36-65.55,72.31-104.84Zm-70.8,8.93c-.15,1.53-4.18,37.97-37.19,39.1l-109.69,3.75,8.29-82.46,104.02-3.55c35.25-1.21,35.91,29.79,34.57,43.16Z"/>
    <path class="cls-1" d="m1037.34,160.09l-96.79,3.31-133.73,291.13,75.67-2.59,21.5-46.78,121.36-4.15,12.17,45.63,75.67-2.58-75.85-283.97Zm-102.88,178.74l46.96-102.22,26.65,99.71-73.61,2.51Z"/>
    <path class="cls-1" d="m1557.56,142.32c-3.5,34.81,24.5,64.72,59.47,63.53l95.17-3.26,6.61-65.79-161.25,5.52Z"/>
    <path class="cls-1" d="m1601.35,361.81c-37.85,1.3-68.91,30.37-72.7,68.05l161.25-5.51,6.62-65.79-95.17,3.25Z"/>
    <polygon class="cls-4" points="1462.41 251.32 1462.39 251.43 1462.28 251.44 1462.29 251.32 1462.41 251.32"/>
    <polygon class="cls-4" points="1454.77 326.14 1454.88 326.14 1454.87 326.25 1454.76 326.26 1454.77 326.14"/>
    <polygon class="cls-4" points="1462.29 251.32 1462.41 251.32 1462.39 251.43 1462.28 251.44 1462.29 251.32"/>
    <polygon class="cls-4" points="1536.97 248.77 1536.96 248.88 1536.84 248.89 1536.85 248.77 1536.97 248.77"/>
    <polygon class="cls-2" points="1642.78 245.15 1635.24 320.09 1529.44 323.7 1529.45 323.59 1529.33 323.59 1529.32 323.71 1529.44 323.7 1518.76 429.88 1444.09 432.43 1454.76 326.26 1454.87 326.25 1454.89 326.14 1454.77 326.14 1454.76 326.26 1348.95 329.87 1356.49 254.94 1462.29 251.32 1462.28 251.44 1462.4 251.43 1462.41 251.32 1462.29 251.32 1472.97 145.15 1547.64 142.6 1536.97 248.77 1536.86 248.77 1536.84 248.89 1536.96 248.88 1536.97 248.77 1642.78 245.15"/>
    <polygon class="cls-4" points="1536.97 248.77 1536.96 248.88 1536.84 248.89 1536.85 248.77 1536.97 248.77"/>
    <polygon class="cls-4" points="1529.33 323.59 1529.45 323.59 1529.43 323.7 1529.32 323.71 1529.33 323.59"/>
    <polygon class="cls-4" points="1454.77 326.14 1454.88 326.14 1454.87 326.25 1454.76 326.26 1454.77 326.14"/>
    <polygon class="cls-4" points="1529.45 323.59 1529.43 323.7 1529.32 323.71 1529.33 323.59 1529.45 323.59"/>
  </g>
</svg>